<!--?xml version="1.0" standalone="no"?-->              <svg id="sw-js-blob-svg" viewBox="0 0 100 100" xmlns="http://www.w3.org/2000/svg">                    <defs>                         <linearGradient id="sw-gradient" x1="0" x2="1" y1="1" y2="0">                            <stop id="stop1" stop-color="rgba(89.076, 4.153, 181.076, 0.39215686274509803)" offset="0%"></stop>                            <stop id="stop2" stop-color="rgba(229, 217, 242, 1)" offset="100%"></stop>                        </linearGradient>                    </defs>                <path fill="url(#sw-gradient)" d="M19.6,-27.5C23,-24.6,21.4,-15.5,25.3,-7.4C29.1,0.8,38.3,8.1,38,13.3C37.7,18.6,27.9,21.7,20,25.7C12,29.7,6,34.5,-1.5,36.6C-9.1,38.7,-18.1,38,-24.9,33.7C-31.6,29.3,-36,21.2,-38.6,12.7C-41.1,4.2,-41.8,-4.8,-37.6,-10.5C-33.4,-16.1,-24.2,-18.4,-17.1,-20C-10,-21.6,-5,-22.6,1.6,-24.7C8.2,-26.9,16.3,-30.3,19.6,-27.5Z" width="100%" height="100%" transform="translate(50 50)" stroke-width="0" style="transition: 0.3s;"></path>              </svg>